<svg xmlns="http://www.w3.org/2000/svg" width="250" height="250" viewBox="0 0 430 430">
  <defs>
    <style>
      .cls-1 {
        fill: #72c892;
      }

      .cls-2 {
        fill: #5abe7f;
      }

      .cls-3 {
        fill: #2bac5b;
      }

      .cls-4 {
        fill: #b8e3c8;
      }

      .cls-5 {
        fill: #d0eddb;
      }

      .cls-6 {
        fill: #a1dab6;
      }

      .cls-7 {
        fill: #43b56d;
      }

      .cls-8 {
        fill: #14a349;
      }

      .cls-9 {
        fill: #fff;
      }
    </style>
  </defs>
  <title>GV-Illustrations-OnceMonthlyPayments</title>
  <g id="Layer_1" data-name="Layer 1">
    <g id="Once_monthly_payments" data-name="Once monthly payments">
      <path class="cls-1" d="M122.65,380h184.7A11.65,11.65,0,0,0,319,368.35V208H111V368.35A11.65,11.65,0,0,0,122.65,380Z"/>
      <path class="cls-1" d="M319,169.58a11.65,11.65,0,0,0-11.65-11.65H122.65A11.65,11.65,0,0,0,111,169.58v22.6H319Z"/>
      <rect class="cls-2" x="111" y="192.18" width="208" height="8.3"/>
      <rect class="cls-3" x="111" y="200.48" width="208" height="8.3"/>
      <path class="cls-4" d="M111,360.79a11.65,11.65,0,0,0,11.65,11.65h26.51L111,334.28Z"/>
      <path class="cls-5" d="M111,200.48V334.28h26.51a11.65,11.65,0,0,1,11.65,11.65v26.51H307.35A11.65,11.65,0,0,0,319,360.79V200.48Z"/>
      <rect class="cls-6" x="111" y="200.48" width="208" height="4.2"/>
      <circle class="cls-7" cx="270.04" cy="175.77" r="11.87"/>
      <circle class="cls-7" cx="159.64" cy="175.77" r="11.87"/>
      <circle class="cls-8" cx="270.13" cy="174.51" r="10.67"/>
      <g>
        <path class="cls-4" d="M270.2,131.19h0v51.54h0a8.05,8.05,0,0,0,8.05-8.05V139.25A8.05,8.05,0,0,0,270.2,131.19Z"/>
        <path class="cls-8" d="M270.2,131.19h0a8.05,8.05,0,0,0-8.05,8.05v35.44a8.05,8.05,0,0,0,8,8.05h0Z"/>
        <path class="cls-5" d="M270.2,131.19h0a8.05,8.05,0,0,0-8.05,8.05v35.44a8.05,8.05,0,0,0,8,8.05h0Z"/>
      </g>
      <circle class="cls-8" cx="159.87" cy="174.51" r="10.67"/>
      <g>
        <path class="cls-4" d="M159.95,131.19h0v51.54h0a8.06,8.06,0,0,0,8.06-8.05V139.25A8.05,8.05,0,0,0,159.95,131.19Z"/>
        <path class="cls-8" d="M159.95,131.19h0a8.05,8.05,0,0,0-8.05,8.05v35.44a8.05,8.05,0,0,0,8,8.05h0Z"/>
        <path class="cls-5" d="M159.95,131.19h0a8.05,8.05,0,0,0-8.05,8.05v35.44a8.05,8.05,0,0,0,8,8.05h0Z"/>
      </g>
      <g>
        <circle class="cls-4" cx="146.61" cy="240.17" r="13.66"/>
        <circle class="cls-4" cx="192.2" cy="240.17" r="13.66"/>
        <circle class="cls-4" cx="237.8" cy="240.17" r="13.66"/>
        <circle class="cls-4" cx="283.39" cy="240.17" r="13.66"/>
      </g>
      <circle class="cls-4" cx="146.61" cy="286.56" r="13.66"/>
      <circle class="cls-4" cx="192.2" cy="286.56" r="13.66"/>
      <circle class="cls-4" cx="283.39" cy="286.56" r="13.66"/>
      <g>
        <circle class="cls-4" cx="146.61" cy="332.94" r="13.66"/>
        <circle class="cls-4" cx="192.2" cy="332.94" r="13.66"/>
        <circle class="cls-4" cx="237.8" cy="332.94" r="13.66"/>
        <circle class="cls-4" cx="283.39" cy="332.94" r="13.66"/>
      </g>
      <path class="cls-9" d="M137.51,334.28H111l38.16,38.16V345.93A11.65,11.65,0,0,0,137.51,334.28Z"/>
      <g>
        <circle class="cls-4" cx="237.8" cy="286.56" r="13.66"/>
        <path class="cls-9" d="M246.36,282.56a1,1,0,0,1-.31.75l-8,8-1.5,1.5a1.07,1.07,0,0,1-1.5,0l-1.5-1.5-4-4a1.07,1.07,0,0,1,0-1.5l1.5-1.5a1.07,1.07,0,0,1,1.5,0l3.25,3.26,7.24-7.26a1.07,1.07,0,0,1,1.5,0l1.5,1.5A1,1,0,0,1,246.36,282.56Z"/>
      </g>
      <g>
        <circle class="cls-2" cx="237.8" cy="286.46" r="17.3"/>
        <path class="cls-9" d="M248.63,281.4a1.29,1.29,0,0,1-.39,1l-10.12,10.12-1.9,1.9a1.35,1.35,0,0,1-1.9,0l-1.9-1.9-5.06-5.06a1.35,1.35,0,0,1,0-1.9l1.9-1.9a1.35,1.35,0,0,1,1.9,0l4.11,4.12,9.17-9.19a1.35,1.35,0,0,1,1.9,0l1.9,1.9A1.29,1.29,0,0,1,248.63,281.4Z"/>
      </g>
    </g>
  </g>
</svg>
